<svg xmlns="http://www.w3.org/2000/svg" viewBox="0 0 16 16" fill="#000000" aria-hidden="true" id="Bell--Streamline-Heroicons" height="16" width="16">
  <desc>
    Bell Streamline Icon: https://streamlinehq.com
  </desc>
  <path fill-rule="evenodd" d="M3.5 6a4.5 4.5 0 0 1 9 0v0.5c0 1.4153333333333333 0.5333333333333333 2.7046666666666668 1.412 3.6799999999999997a0.5 0.5 0 0 1 -0.19799999999999998 0.8039999999999999c-1.0293333333333332 0.37999999999999995 -2.1066666666666665 0.6599999999999999 -3.220666666666667 0.8286666666666667a2.5 2.5 0 1 1 -4.986666666666666 0 16.39 16.39 0 0 1 -3.220666666666667 -0.8293333333333333 0.5 0.5 0 0 1 -0.19866666666666666 -0.8033333333333333A5.478 5.478 0 0 0 3.5 6.5V6Zm3.001333333333333 5.933333333333334a1.5 1.5 0 1 0 2.9973333333333336 0 16.704666666666665 16.704666666666665 0 0 1 -2.9973333333333336 0Z" clip-rule="evenodd" stroke-width="0.6667"></path>
</svg>