<svg xmlns="http://www.w3.org/2000/svg" fill="none" viewBox="0 0 48 48" id="Boat--Streamline-Ionic-Filled" height="48" width="48">
  <desc>
    Boat Streamline Icon: https://streamlinehq.com
  </desc>
  <path fill="#000000" d="M40.5068 46.8144c0 -0.1267 -0.0342 -0.2512 -0.099 -0.3601 -0.0649 -0.109 -0.1578 -0.1984 -0.2693 -0.2589 -2.7926 -1.5009 -5.3397 -3.7984 -6.46 -4.9517 -0.1664 -0.1747 -0.3885 -0.2857 -0.6281 -0.3142 -0.2395 -0.0284 -0.4814 0.0275 -0.6841 0.1584 -5.1922 3.3444 -11.514 3.3465 -16.7072 0.0051 -0.2044 -0.132 -0.4487 -0.1882 -0.6904 -0.1589 -0.2415 0.0294 -0.4652 0.1426 -0.6322 0.3198 -1.1109 1.1637 -3.6302 3.4354 -6.4403 4.926 -0.1117 0.0561 -0.2073 0.14 -0.2775 0.2434s-0.1129 0.2232 -0.1238 0.3478c-0.0084 0.1059 0.0077 0.2124 0.0471 0.3114 0.0393 0.0988 0.1008 0.1873 0.1798 0.2586s0.1732 0.1234 0.2756 0.1524c0.1023 0.0291 0.2099 0.0343 0.3145 0.0152 2.151 -0.4312 4.2297 -1.4113 6.2104 -2.4583 0.1271 -0.067 0.2683 -0.1025 0.4119 -0.1035 0.1436 -0.0012 0.2853 0.0323 0.4134 0.0973 2.6817 1.3633 5.6474 2.0739 8.6559 2.0739 3.0084 0 5.9741 -0.7106 8.6557 -2.0739 0.1296 -0.0657 0.2729 -0.0994 0.4182 -0.0984 0.1451 0.0012 0.288 0.037 0.4165 0.1046 1.9704 1.0316 4.046 2.0209 6.1897 2.4552 0.1013 0.0194 0.2056 0.0161 0.3056 -0.0098 0.0998 -0.026 0.1926 -0.0737 0.2716 -0.1401 0.0791 -0.0663 0.1424 -0.1493 0.1852 -0.2432 0.043 -0.0938 0.0644 -0.1961 0.0629 -0.2991l-0.0021 0.001Z" stroke-width="1"></path>
  <path fill="#000000" d="M46.77 23.4759c-0.36 -0.8655 -1.1244 -1.5361 -2.156 -1.8931l-2.4564 -0.9779v-8.5707c0 -1.7511 -0.6955 -3.4305 -1.9337 -4.6686 -1.2383 -1.2382 -2.9175 -1.9338 -4.6686 -1.9338H32.254v-0.8253c0 -1.0944 -0.4346 -2.144 -1.2086 -2.9179C30.2716 0.9148 29.2221 0.48 28.1276 0.48h-8.253c-1.0945 0 -2.144 0.4348 -2.9178 1.2086 -0.774 0.7739 -1.2087 1.8235 -1.2087 2.9179v0.8253h-3.3012c-1.7511 0 -3.4304 0.6956 -4.6686 1.9338 -1.2382 1.2381 -1.9338 2.9175 -1.9338 4.6686v8.578l-2.4326 0.9687c-1.0254 0.3403 -1.8187 1.0316 -2.1818 1.9022 -0.2528 0.6077 -0.5416 1.5474 -0.1341 2.7297l0.0103 0.0309 4.8135 12.3218c0.1774 0.4526 0.4876 0.841 0.89 1.1139s0.8779 0.4177 1.3641 0.4149c0.0516 0 0.1032 0 0.1579 -0.0052 3.2311 -0.2063 5.7771 -1.7815 7.4896 -3.2609 2.446 2.1118 5.3231 3.2661 8.1797 3.2661 2.8565 0 5.7183 -1.1554 8.1642 -3.2702 1.7115 1.4814 4.2606 3.0608 7.4907 3.265 0.5113 0.036 1.0208 -0.0922 1.4544 -0.3655 0.4335 -0.2735 0.7686 -0.6781 0.9565 -1.155l4.8125 -12.2763c0.3384 -0.8347 0.2992 -1.8322 -0.1094 -2.8164Zm-21.4278 -9.5632 -0.1176 -0.0412c-0.7967 -0.2507 -1.6513 -0.2507 -2.4481 0l-0.0597 0.0186 -13.0057 5.1818c-0.0626 0.025 -0.1304 0.0341 -0.1975 0.0269 -0.0671 -0.0074 -0.1312 -0.0311 -0.187 -0.0689 -0.0558 -0.0379 -0.1015 -0.0888 -0.133 -0.1484s-0.048 -0.126 -0.0479 -0.1933v-6.654c0 -0.8756 0.3477 -1.7152 0.9669 -2.3343 0.6191 -0.6192 1.4587 -0.9669 2.3343 -0.9669h23.1084c0.8755 0 1.7152 0.3477 2.3342 0.9669 0.6191 0.6191 0.967 1.4587 0.967 2.3343v6.6477c0.0001 0.0675 -0.0164 0.1338 -0.048 0.1935 -0.0314 0.0595 -0.0772 0.1104 -0.1329 0.1483 -0.0558 0.0379 -0.1201 0.0615 -0.1871 0.0688 -0.067 0.0074 -0.1348 -0.0018 -0.1974 -0.0268l-12.9489 -5.153Z" stroke-width="1"></path>
</svg>