<svg xmlns="http://www.w3.org/2000/svg" viewBox="0 0 16 16" fill="none" id="Git-Merge--Streamline-Majesticons" height="16" width="16">
  <desc>
    Git Merge Streamline Icon: https://streamlinehq.com
  </desc>
  <path fill="#000000" d="M6.666666666666666 4.666666666666666a2 2 0 1 1 -4 0 2 2 0 0 1 4 0z" stroke-width="0.6667"></path>
  <path stroke="#000000" stroke-linecap="round" stroke-linejoin="round" stroke-width="1.3333" d="M4.666666666666666 6.666666666666666a2 2 0 1 0 0 -4 2 2 0 0 0 0 4zm0 0v6.666666666666666m0 -6.666666666666666c0 1.5553333333333335 0.9333333333333332 4.666666666666666 4.666666666666666 4.666666666666666"></path>
  <path fill="#000000" stroke="#000000" stroke-linecap="round" stroke-linejoin="round" stroke-width="1.3333" d="M9.333333333333332 11.333333333333332a2 2 0 1 0 4 0 2 2 0 1 0 -4 0"></path>
</svg>