<svg xmlns="http://www.w3.org/2000/svg" viewBox="0 0 16 16" id="Handshake-Simple--Streamline-Font-Awesome" height="16" width="16">
  <desc>
    Handshake Simple Streamline Icon: https://streamlinehq.com
  </desc>
<!--! Font Awesome Free 6.5.2 by @fontawesome - https://fontawesome.com License - https://fontawesome.com/license/free (Icons: CC BY 4.0, Fonts: SIL OFL 1.1, Code: MIT License) Copyright 2024 Fonticons, Inc.-->
  <path d="m8.0833 3.8158525 -2.3716000000000004 1.9207999999999998c-0.39445 0.3185 -0.4704 0.8917999999999999 -0.1715 1.30095 0.31605 0.4361 0.931 0.52185 1.35485 0.19110000000000002l2.43285 -1.8914000000000002c0.1715 -0.1323 0.41650000000000004 -0.10289999999999999 0.55125 0.06860000000000001s0.10289999999999999 0.41650000000000004 -0.06860000000000001 0.55125l-0.51205 0.39690000000000003 4.3414 3.9984h1.0241c0.64925 0 1.176 -0.52675 1.176 -1.176v-3.136c0 -0.64925 -0.52675 -1.176 -1.176 -1.176h-1.97715l-0.09555000000000001 -0.061250000000000006 -1.7787 -1.13925c-0.37485 -0.24009999999999998 -0.8134000000000001 -0.3675 -1.2593 -0.3675 -0.5341 0 -1.0535 0.18375 -1.47 0.5194Zm0.5586000000000001 3.0478000000000005 -1.26665 0.9849000000000001c-0.77175 0.6027 -1.8914000000000002 0.44589999999999996 -2.4696000000000002 -0.34790000000000004 -0.5439 -0.7472500000000001 -0.40670000000000006 -1.7909500000000003 0.31115000000000004 -2.3716000000000004l2.0384 -1.64885c-0.2842 -0.12004999999999999 -0.59045 -0.18130000000000002 -0.9016000000000001 -0.18130000000000002 -0.4606 -0.0024500000000000004 -0.9089499999999999 0.13475 -1.2936 0.38955000000000006l-1.7640000000000002 1.176h-1.9600000000000002c-0.64925 0 -1.176 0.52675 -1.176 1.176v3.136c0 0.64925 0.52675 1.176 1.176 1.176h2.6509l2.2393 2.0433c0.48019999999999996 0.43855000000000005 1.22255 0.40425000000000005 1.6611000000000002 -0.07595 0.13475 -0.14945 0.22540000000000002 -0.3234 0.27195 -0.5047l0.41650000000000004 0.38220000000000004c0.47775 0.43855000000000005 1.22255 0.40670000000000006 1.6611000000000002 -0.07105 0.11025000000000001 -0.12004999999999999 0.19110000000000002 -0.2597 0.24255000000000002 -0.40425000000000005 0.47530000000000006 0.3185 1.1221 0.25235 1.52145 -0.18375 0.43855000000000005 -0.47775 0.40670000000000006 -1.22255 -0.07105 -1.6611000000000002l-3.2879 -3.0135000000000005Z" fill="#000000" stroke-width="0.025"></path>
</svg>