<svg width="735" height="726" viewBox="0 0 735 726" fill="none" xmlns="http://www.w3.org/2000/svg">
<g clip-path="url(#clip0_1399_328)">
<path d="M403 727C268.667 727 134.833 727 1 727C1 485 1 243 1 1C246 1 491 1 736 1C736 243 736 485 736 727C625.167 727 514.333 727 403 727ZM134.402 200.015C134.246 200.322 134.09 200.629 133.893 200.884C133.893 200.884 133.829 200.866 133.264 201.249C124.212 216.882 117.491 233.455 112.896 251.738C110.655 264.824 108.414 277.909 106.024 291.766C105.982 292.812 105.941 293.857 105.466 295.467C105.43 296.631 105.394 297.795 105.244 299.836C105.269 301.893 105.294 303.95 105.147 306.925C105.226 311.613 105.306 316.3 105.21 321.659C105.234 322.12 105.257 322.581 105.119 323.822C105.379 325.587 105.639 327.351 105.885 330.021C106.35 335.458 106.504 340.945 107.378 346.316C108.091 350.703 109.664 354.951 110.832 359.911C110.89 361.613 110.947 363.314 110.94 365.753C111.598 367.528 112.255 369.304 112.903 370.997C112.903 370.997 112.868 371.072 112.851 371.546C112.851 371.546 112.993 371.998 113.019 372.669C113.125 373.102 113.231 373.535 113.257 374.729C116.86 384.807 120.462 394.885 124.087 405.567C124.416 406.042 124.745 406.516 125.048 407.731C126.374 410.466 127.699 413.202 129.009 415.986C129.009 415.986 129.061 415.982 129.117 416.687C134.401 425.715 138.904 435.332 145.158 443.628C153.708 454.969 163.59 465.307 173.211 476.669C193.111 495.993 216.289 510.1 242.54 520.517C245.038 521.297 247.535 522.076 250.705 523.033C251.81 523.36 252.914 523.686 254.459 524.532C256.419 525.25 258.379 525.967 260.739 526.831C261.514 524.632 262.158 522.803 263.036 520.275C263.427 518.61 263.817 516.945 264.606 514.953C264.736 514.641 264.865 514.329 265.252 513.422C265.458 512.597 265.664 511.772 266.439 510.463C266.843 507.628 267.246 504.793 267.806 501.303C267.827 500.855 267.848 500.407 268.446 499.372C268.601 495.914 269.021 492.441 268.841 489.001C268.636 485.094 270.518 484.474 273.709 485.089C276.612 485.649 279.528 486.143 282.439 486.665C282.563 486.162 282.687 485.658 282.812 485.154C278.204 483.773 273.596 482.391 268.226 480.973C260.497 477.826 252.723 474.783 245.05 471.505C235.653 467.49 226.341 463.278 216.276 458.962C214.45 458.259 212.624 457.556 210.872 456.136C216.902 449.854 215.921 444.602 208.178 440.527C203.038 437.822 197.792 435.186 193.07 431.845C178.075 421.235 170.945 406.929 173.954 388.344C176.674 371.544 191.308 361.906 207.588 366.062C213.562 367.587 216.457 365.829 219.89 359.149C227.217 359.619 234.545 360.09 242.807 360.75C249.91 360.686 257.014 360.622 264.984 360.769C271.647 360.156 278.31 359.543 285.784 358.975C286.852 358.843 287.92 358.711 289.689 358.745C290.784 358.466 291.88 358.188 293.65 357.934C294.092 357.854 294.534 357.774 295.795 357.863C300.225 356.926 304.654 355.989 309.818 355.054C310.539 354.926 311.261 354.798 312.729 354.793C314.797 354.15 316.864 353.507 319.529 352.907C320.057 352.68 320.584 352.453 321.92 352.151C328.975 349.827 336.029 347.504 343.716 345.069C344.135 344.982 344.554 344.896 345.523 344.773C346.014 344.535 346.505 344.297 346.984 344.793C346.817 345.237 346.766 345.791 346.465 346.11C337.173 355.953 327.632 365.573 318.628 375.673C313.31 381.639 314.397 389.407 320.316 394.213C325.767 398.64 333.413 397.609 338.498 391.684C341.099 388.654 343.385 385.336 346.149 382.471C352.403 375.989 358.866 369.707 365.243 363.343C365.927 363.678 366.612 364.013 367.296 364.348C366.89 373.412 366.62 382.486 366.037 391.539C365.51 399.725 370.172 406.039 377.691 406.798C384.437 407.48 391.073 402.244 391.477 394.599C392.089 383.002 392.691 371.262 391.579 359.749C389.942 342.807 381.83 336.338 364.653 335.973C364.155 335.963 363.659 335.883 363.6 335.355C370.39 330.883 377.18 326.41 384.601 321.725C390.803 314.597 397.004 307.47 403.733 299.927C404.494 298.619 405.255 297.31 406.368 295.466C406.914 294.31 407.46 293.154 408.537 291.531C411.788 284.055 414.697 276.498 414.682 267.538C414.727 263.707 414.771 259.876 414.892 255.316C414.615 253.884 414.338 252.451 414.114 250.308C413.869 249.176 413.625 248.044 413.264 246.191C413.155 245.471 413.046 244.75 412.964 243.241C412.684 241.681 412.404 240.121 411.8 236.751C419.037 239.759 425.34 241.884 431.154 244.94C436.64 247.825 441.612 251.689 447.156 255.655C448.145 256.427 449.133 257.199 450.342 258.523C451.239 259.265 452.135 260.007 453.532 261.214C461.11 269.937 468.672 278.675 476.279 287.372C478.068 289.418 480.01 291.331 481.633 294.017C479.032 297.868 479.34 301.554 481.403 305.712C494.103 331.304 500.991 358.294 500.14 387.02C499.498 408.677 493.828 428.756 480.626 446.245C463.653 468.73 440.181 480.735 413.373 486.948C382.536 494.094 351.591 493.018 320.664 487.383C313.415 486.062 308.907 488.142 308.047 493.377C307.188 498.602 310.26 502.066 317.293 503.245C327.089 504.888 336.925 506.285 347.062 507.836C347.062 515.43 347.138 523.07 347.031 530.706C346.977 534.55 347.393 538.1 351.115 540.19C354.979 542.361 358.48 541.272 362.457 538.888C392.208 553.493 423.097 564.301 456.37 567.297C479.172 569.35 501.278 567.079 521.691 555.973C535.607 548.402 547.394 538.319 555.1 523.282C557.071 520.045 559.165 516.875 560.99 513.558C566.944 502.738 571.058 491.255 573.384 478.413C573.613 477.284 573.843 476.156 574.524 474.661C574.586 474.104 574.647 473.547 574.886 472.333C574.908 471.881 574.93 471.429 575.494 470.443C575.684 468.637 575.874 466.831 576.529 464.38C577.64 453.668 578.976 442.973 579.763 432.237C580.135 427.172 579.453 422.03 579.245 415.998C578.115 402.329 576.986 388.66 575.927 374.157C573.297 361.768 570.667 349.38 568.049 336.176C565.298 326.624 563.027 316.9 559.675 307.563C555.596 296.201 550.607 285.166 545.945 273.265C542.834 266.814 539.724 260.363 536.591 253.534C536.463 253.288 536.26 253.149 535.904 252.47C535.314 251.94 534.725 251.41 534.105 250.919C534.105 250.919 534.149 250.869 534.212 250.161C533.406 248.473 532.601 246.785 531.634 244.43C529.155 240.101 526.969 235.569 524.141 231.481C516.313 220.171 508.217 209.046 500.162 197.866C500.162 197.866 500.117 197.914 500.125 197.451C500.125 197.451 499.957 197.018 499.733 196.385C490.055 185.707 480.637 174.776 470.593 164.453C465.337 159.05 458.983 154.714 453.086 149.914C453.086 149.914 453.045 149.922 452.79 149.332C451.585 148.513 450.381 147.694 448.814 146.301C433.032 133.81 415.662 124.027 396.875 116.958C362.791 104.134 327.397 101.25 291.347 103.924C260.591 106.206 231.263 113.752 204.602 129.441C193.094 136.213 182.813 145.069 171.39 153.233C170.238 154.465 169.086 155.697 168.002 156.989C168.002 156.989 167.932 156.938 167.372 157.221C167.209 157.791 167.045 158.361 166.829 158.847C166.829 158.847 166.732 158.832 166.033 158.804C165.574 158.988 164.957 159.041 164.679 159.376C157.599 167.903 150.421 176.353 143.568 185.06C140.667 188.747 138.464 192.983 135.429 197.385C135.25 198.229 135.072 199.073 134.898 199.959C134.898 199.959 134.932 199.934 134.402 200.015ZM450.187 385.958C451.57 376.923 453.048 367.9 454.304 358.847C455.303 351.64 450.717 345.468 443.777 344.298C437.124 343.176 430.492 347.374 429.31 354.3C426.85 368.715 424.667 383.185 422.791 397.686C421.926 404.373 427.09 410.354 433.445 411.174C440.636 412.101 446.824 407.706 448.049 400.651C448.845 396.066 449.427 391.445 450.187 385.958Z" fill="white"/>
<path d="M413.38 246.912C413.624 248.044 413.869 249.176 413.783 250.453C412.322 250.115 411.182 249.2 410.061 249.221C402.363 249.369 394.666 249.983 386.973 249.928C375.779 249.848 364.589 249.171 353.394 249.04C339.163 248.874 324.928 249 310.695 249C300.791 249 290.885 248.877 280.983 249.029C266.872 249.246 252.764 249.864 238.653 249.925C229.295 249.966 219.935 249.115 210.573 249.045C190.926 248.896 171.278 248.998 151.631 249.003C150.3 249.003 148.969 249.075 147.638 249.07C138.399 249.034 129.16 249.032 119.924 248.88C118.898 248.863 117.887 247.969 117.196 247.639C115.779 248.826 114.481 249.914 113.183 251.002C117.491 233.454 124.212 216.881 133.607 201.446C134.518 203.191 134.847 204.893 135.727 206.235C136.439 207.32 137.814 207.971 138.895 208.814C139.6 207.649 140.47 206.55 140.967 205.303C141.608 203.692 141.95 201.963 142.286 200.763C145.665 201.604 148.469 202.909 151.275 202.912C264.471 203.015 377.668 202.991 490.865 203.034C495.08 203.035 497.954 201.105 500.226 197.847C508.216 209.045 516.312 220.17 524.14 231.481C526.969 235.568 529.155 240.1 531.483 245.007C532.271 247.346 533.21 249.107 534.148 250.868C534.148 250.868 534.104 250.919 534.079 251.291C534.296 253.215 534.538 254.767 534.997 257.715C532.689 256.113 530.482 255.398 530.223 254.245C529.502 251.044 527.465 250.983 525.021 250.989C514.163 251.014 503.304 251 492.446 251C479.842 251 467.236 251.13 454.636 250.918C450.981 250.856 448.202 251.441 446.809 255.122C441.611 251.689 436.64 247.824 431.154 244.94C425.34 241.883 419.037 239.759 411.8 236.75C412.404 240.12 412.684 241.68 412.702 243.836C412.754 245.258 413.067 246.085 413.38 246.912Z" fill="#AA94F5"/>
<path d="M500.194 197.856C497.954 201.105 495.08 203.035 490.865 203.034C377.668 202.991 264.471 203.015 151.275 202.912C148.469 202.909 145.665 201.604 142.286 200.763C141.95 201.963 141.608 203.692 140.967 205.303C140.47 206.55 139.6 207.649 138.895 208.814C137.814 207.97 136.439 207.32 135.727 206.235C134.847 204.893 134.518 203.191 133.889 201.255C133.829 200.866 133.893 200.884 134.145 200.818C134.688 200.552 134.865 200.28 134.931 199.934C134.931 199.934 134.897 199.959 135.191 199.842C135.638 198.806 135.79 197.887 135.943 196.969C138.464 192.982 140.667 188.746 143.568 185.06C150.42 176.353 157.599 167.903 164.679 159.376C164.957 159.041 165.573 158.988 166.5 159.188C168.744 163.014 170.676 162.698 173.063 160.056C173.949 159.077 175.523 158.03 176.694 158.124C180.746 158.451 184.746 159.38 188.794 159.832C190.13 159.981 192.498 159.755 192.772 159.061C194.198 155.445 197.058 155.995 199.853 155.995C280.225 156.001 360.598 155.978 440.971 156.091C443.774 156.095 446.611 157.333 449.37 158.198C452.593 159.207 455.747 160.438 460.062 161.977C457.118 156.849 455.121 153.372 453.125 149.896C458.983 154.713 465.336 159.049 470.593 164.452C480.636 174.775 490.055 185.706 499.685 196.798C499.797 197.445 499.957 197.679 500.117 197.914C500.117 197.914 500.162 197.865 500.194 197.856Z" fill="#B591F4"/>
<path d="M113.039 251.37C114.481 249.914 115.779 248.826 117.196 247.639C117.887 247.97 118.898 248.863 119.924 248.88C129.161 249.032 138.4 249.035 147.638 249.07C148.969 249.075 150.3 249.003 151.631 249.003C171.279 248.998 190.927 248.897 210.573 249.045C219.935 249.115 229.295 249.966 238.654 249.925C252.764 249.864 266.872 249.246 280.983 249.029C290.885 248.877 300.791 249 310.695 249C324.928 249 339.163 248.874 353.394 249.04C364.589 249.171 375.779 249.848 386.973 249.928C394.667 249.984 402.363 249.369 410.061 249.222C411.183 249.2 412.322 250.116 413.757 250.808C414.338 252.451 414.615 253.884 414.529 255.839C410.744 258.114 410.002 261.029 412.046 263.963C412.911 265.206 413.394 266.716 414.051 268.105C414.698 276.498 411.788 284.055 408.225 291.384C406.461 289.346 408.165 285.14 403.742 285.263C402.24 290.618 397.65 293.999 392.088 293.999C301.682 294 211.277 294 120.871 294C120.038 294 119.202 293.944 118.374 294.006C115.143 294.249 113.906 292.737 113.935 289.558C113.951 287.794 113.285 286.023 112.98 284.515C110.222 287.14 108.198 289.067 106.174 290.994C108.414 277.909 110.655 264.823 113.039 251.37Z" fill="#9E96F5"/>
<path d="M453.106 149.905C455.121 153.372 457.118 156.849 460.062 161.977C455.747 160.438 452.593 159.208 449.37 158.198C446.611 157.334 443.775 156.095 440.971 156.091C360.598 155.978 280.226 156.001 199.853 155.995C197.059 155.995 194.198 155.445 192.772 159.061C192.498 159.755 190.13 159.981 188.794 159.832C184.746 159.38 180.746 158.451 176.694 158.124C175.523 158.03 173.949 159.077 173.064 160.056C170.676 162.698 168.745 163.014 166.85 159.202C166.731 158.832 166.829 158.847 167.131 158.749C167.599 158.08 167.765 157.509 167.932 156.937C167.932 156.937 168.001 156.989 168.333 156.979C172.271 156.051 172.572 155.687 171.975 152.978C182.813 145.069 193.094 136.212 204.601 129.441C231.263 113.752 260.59 106.206 291.347 103.924C327.397 101.249 362.791 104.134 396.875 116.958C415.662 124.027 433.032 133.81 448.766 146.782C450.161 148.149 451.603 149.035 453.045 149.921C453.045 149.921 453.086 149.914 453.106 149.905Z" fill="#C18FF3"/>
<path d="M554.909 523.959C547.394 538.319 535.606 548.402 521.691 555.973C501.278 567.079 479.172 569.35 456.369 567.297C423.097 564.302 392.207 553.493 362.19 538.43C362.424 535.59 363.242 533.224 363.361 530.824C363.657 524.886 363.634 518.932 364.077 513.225C364.796 515.849 365.177 518.234 365.616 520.978C376.176 520.978 386.482 520.985 396.787 520.961C397.436 520.959 398.08 520.628 398.733 520.592C404.933 520.252 411.147 519.547 417.333 519.734C423.732 519.928 430.265 522.233 436.454 521.426C449.636 519.707 462.64 517.161 475.868 520.763C476.76 521.006 477.819 520.69 478.792 520.569C482.877 520.06 486.977 518.986 491.039 519.121C497.961 519.351 504.886 520.128 511.76 521.049C522.082 522.431 532.334 517.187 542.691 520.901C543.896 521.333 545.578 520.459 547.033 520.162C550.628 519.427 553.596 519.971 554.909 523.959Z" fill="#95C9F6"/>
<path d="M555.005 523.62C553.596 519.971 550.628 519.426 547.033 520.161C545.578 520.458 543.896 521.332 542.691 520.9C532.334 517.187 522.082 522.43 511.76 521.048C504.886 520.127 497.961 519.35 491.039 519.12C486.978 518.985 482.877 520.059 478.792 520.568C477.819 520.69 476.76 521.005 475.868 520.762C462.641 517.161 449.636 519.706 436.455 521.425C430.265 522.232 423.732 519.927 417.333 519.734C411.147 519.546 404.933 520.252 398.733 520.592C398.08 520.628 397.436 520.959 396.787 520.96C386.482 520.984 376.176 520.977 365.616 520.977C365.177 518.234 364.796 515.849 363.932 512.788C362.997 509.15 364.075 508.097 367.239 508.057C375.203 507.958 383.188 507.715 391.116 506.993C424.676 503.936 455.299 493.477 480.928 471.084C481.044 474.571 481.696 476.311 484.869 473.437C485.525 472.843 486.834 472.71 487.813 472.778C492.543 473.108 497.259 473.891 501.986 473.942C516.79 474.1 531.597 474.114 546.399 473.94C551.789 473.876 557.17 473.126 562.719 472.677C562.935 473.771 563.347 475.854 563.758 477.936C564.326 477.964 564.895 477.991 565.464 478.019C566.256 474.813 567.049 471.606 568.144 467.177C570.134 471.945 571.617 475.499 573.1 479.053C571.058 491.254 566.944 502.738 560.99 513.557C559.165 516.875 557.071 520.044 555.005 523.62Z" fill="#92BEF4"/>
<path d="M480.901 470.676C455.299 493.477 424.676 503.936 391.116 506.993C383.189 507.715 375.203 507.959 367.239 508.057C364.075 508.097 362.997 509.15 363.595 512.548C363.634 518.932 363.658 524.885 363.362 530.823C363.242 533.224 362.425 535.589 361.82 538.323C358.48 541.272 354.98 542.36 351.115 540.19C347.393 538.1 346.977 534.55 347.031 530.706C347.138 523.069 347.063 515.43 347.063 507.836C336.925 506.285 327.089 504.887 317.293 503.245C310.26 502.066 307.188 498.602 308.047 493.377C308.907 488.142 313.415 486.062 320.664 487.383C351.591 493.018 382.536 494.094 413.373 486.947C440.181 480.735 463.653 468.73 480.626 446.245C493.828 428.756 499.498 408.677 500.14 387.02C500.991 358.294 494.103 331.304 481.403 305.712C479.34 301.554 479.033 297.868 482.078 293.709C488.678 290.573 492.048 291.483 495.313 296.884C496.151 298.27 496.926 299.693 497.776 301.47C499.815 306.482 502.147 311.01 503.729 315.786C507.042 325.789 509.959 335.923 512.996 346.403C517.206 368.443 518.263 390.113 513.34 412.134C511.851 417.219 510.882 422.1 509.317 426.783C503.62 443.829 493.476 458.053 480.901 470.676Z" fill="#050608"/>
<path d="M480.928 471.084C493.476 458.053 503.619 443.829 509.316 426.783C510.881 422.1 511.851 417.219 513.714 412.21C514.909 413.45 515.485 414.911 516.268 416.898C517.099 416.813 518.426 416.677 519.755 416.541C519.531 414.174 519.36 412.365 519.189 410.557C519.733 410.382 520.278 410.206 520.822 410.031C521.94 412.281 523.058 414.532 525.002 418.445C526.232 414.596 527.056 412.016 528.303 408.115C530.542 416.273 536.054 416.607 541.977 415.982C544.437 415.722 546.901 414.951 549.331 415.068C559.31 415.549 569.276 416.282 579.248 416.922C579.452 422.029 580.135 427.172 579.763 432.237C578.976 442.973 577.64 453.668 575.927 464.76C575.2 467.086 575.076 469.032 574.952 470.977C574.93 471.429 574.908 471.881 574.531 472.711C574.142 473.735 574.107 474.381 574.073 475.027C573.843 476.155 573.613 477.284 573.242 478.733C571.617 475.499 570.134 471.945 568.144 467.177C567.049 471.607 566.256 474.813 565.464 478.019C564.895 477.991 564.326 477.964 563.758 477.936C563.346 475.854 562.935 473.771 562.719 472.677C557.17 473.127 551.789 473.876 546.399 473.94C531.597 474.114 516.789 474.1 501.986 473.942C497.259 473.891 492.543 473.108 487.813 472.778C486.834 472.71 485.525 472.844 484.869 473.438C481.696 476.311 481.044 474.571 480.928 471.084Z" fill="#8EB1F4"/>
<path d="M579.247 416.46C569.277 416.282 559.31 415.549 549.331 415.069C546.901 414.952 544.437 415.723 541.978 415.982C536.055 416.608 530.542 416.274 528.304 408.116C527.057 412.017 526.232 414.597 525.002 418.446C523.058 414.532 521.94 412.282 520.823 410.031C520.278 410.207 519.734 410.382 519.19 410.558C519.361 412.366 519.532 414.174 519.756 416.541C518.427 416.678 517.1 416.814 516.268 416.899C515.485 414.911 514.91 413.451 513.96 411.915C518.263 390.114 517.206 368.443 513.42 346.403C518.398 346.517 522.746 346.018 527.297 345.48C536.239 344.424 545.468 345.52 554.549 346.145C556.418 346.274 558.229 348.15 559.932 349.403C560.707 349.973 561.154 350.988 562.244 352.475C563.167 348.521 563.88 345.467 564.782 341.604C566.426 343.596 567.971 344.698 568.363 346.118C569.012 348.464 568.71 351.055 569.176 353.472C570.345 359.538 571.604 365.593 573.103 371.584C573.424 372.869 574.908 373.863 575.857 374.991C576.986 388.66 578.116 402.329 579.247 416.46Z" fill="#8AA1F3"/>
<path d="M497.729 301.099C496.925 299.693 496.15 298.27 495.312 296.884C492.047 291.483 488.678 290.573 482.201 293.353C480.009 291.331 478.067 289.418 476.278 287.372C468.671 278.674 461.109 269.937 453.34 260.673C453.976 259.387 454.803 258.641 456.089 257.481C453.601 257.685 451.861 257.828 450.121 257.971C449.133 257.199 448.144 256.427 446.982 255.389C448.202 251.441 450.981 250.857 454.635 250.918C467.236 251.131 479.842 251 492.446 251C503.304 251 514.162 251.014 525.021 250.989C527.464 250.984 529.501 251.044 530.222 254.245C530.482 255.398 532.689 256.113 534.997 257.715C534.538 254.767 534.296 253.215 534.094 251.271C534.724 251.41 535.314 251.94 536.016 252.951C536.247 253.635 536.408 253.796 536.613 253.912C539.723 260.363 542.834 266.814 545.973 274.029C546.441 276.71 546.689 278.697 547.358 280.532C549.489 286.385 551.777 292.181 553.631 297.959C550.499 297.913 547.394 293.638 545.068 298.112C543.156 301.791 540.644 300.724 537.588 300.463C531.966 299.982 526.269 300.078 520.618 300.302C515.905 300.489 510.935 302.349 506.602 301.304C503.378 300.526 500.742 300 497.729 301.099Z" fill="#9D96F4"/>
<path d="M267.869 499.959C267.848 500.407 267.827 500.855 267.402 501.75C266.622 505.114 266.246 508.03 265.87 510.947C265.664 511.772 265.458 512.597 264.893 513.856C264.425 514.62 264.316 514.95 264.207 515.28C263.817 516.945 263.427 518.61 262.602 520.695C259.45 522.08 256.734 523.046 254.018 524.013C252.914 523.686 251.81 523.36 250.286 522.599C247.287 521.434 244.707 520.705 242.127 519.975C216.29 510.1 193.111 495.993 173.352 476.118C175.504 469.827 172.343 467.956 166.838 467.86C168.833 464.077 171.01 464.694 173.581 466.067C176.31 467.524 179.164 469.702 182.023 469.798C194.306 470.213 206.612 470.066 218.905 469.85C220.212 469.827 221.487 468.016 222.777 467.035C221.281 466.485 219.822 465.674 218.278 465.453C216.354 465.177 214.36 465.386 212.874 465.386C214.611 462.757 215.801 460.954 216.992 459.151C226.341 463.278 235.653 467.491 245.051 471.506C252.723 474.784 260.497 477.826 268.576 481.381C266.609 487.732 266.17 493.783 267.869 499.959Z" fill="#93BCF5"/>
<path d="M361.149 337.062C361.637 336.741 362.125 336.421 362.887 335.967C363.659 335.882 364.155 335.963 364.653 335.973C381.83 336.338 389.942 342.807 391.579 359.749C392.691 371.262 392.089 383.002 391.477 394.599C391.073 402.244 384.437 407.48 377.691 406.798C370.172 406.039 365.51 399.725 366.037 391.539C366.621 382.486 366.89 373.412 367.296 364.347C366.612 364.013 365.927 363.678 365.243 363.343C358.866 369.707 352.403 375.989 346.149 382.471C343.386 385.336 341.099 388.654 338.499 391.683C333.413 397.609 325.767 398.64 320.316 394.213C314.397 389.407 313.31 381.639 318.629 375.672C327.632 365.573 337.173 355.953 346.465 346.11C346.766 345.791 346.817 345.237 347.35 344.373C349.547 343.024 351.378 342.095 353.208 341.165C353.208 341.165 353.091 341.124 353.465 341.093C356.276 339.729 358.712 338.396 361.149 337.062Z" fill="#050505"/>
<path d="M497.775 301.47C500.742 300 503.378 300.526 506.602 301.304C510.936 302.349 515.905 300.489 520.618 300.302C526.269 300.079 531.966 299.982 537.589 300.463C540.644 300.724 543.156 301.791 545.068 298.112C547.394 293.638 550.499 297.913 553.64 298.353C554.358 300.852 554.694 302.917 554.804 305.137C554.57 305.697 554.562 306.101 554.555 306.506C555.043 306.328 555.531 306.149 556.292 306.222C556.76 307.596 556.797 308.775 557.175 309.831C559.668 316.791 562.17 323.749 564.816 330.651C565.66 332.852 566.951 334.883 568.037 336.991C570.667 349.38 573.297 361.768 575.891 374.574C574.907 373.863 573.423 372.869 573.102 371.584C571.604 365.593 570.344 359.538 569.175 353.472C568.709 351.055 569.011 348.464 568.363 346.118C567.97 344.698 566.425 343.596 564.781 341.603C563.879 345.467 563.166 348.521 562.243 352.474C561.153 350.987 560.706 349.972 559.931 349.402C558.228 348.149 556.418 346.274 554.548 346.145C545.467 345.519 536.239 344.423 527.297 345.48C522.746 346.017 518.397 346.516 513.462 346.002C509.959 335.923 507.041 325.789 503.728 315.787C502.146 311.01 499.814 306.482 497.775 301.47Z" fill="#9299F2"/>
<path d="M217.934 354.123C217.948 354.292 217.963 354.461 218.069 355.091C218.363 355.793 218.565 356.035 218.767 356.276C218.767 356.276 218.773 356.159 218.734 356.554C218.822 357.663 218.947 358.377 219.073 359.091C216.457 365.829 213.561 367.586 207.587 366.061C191.308 361.905 176.673 371.544 173.954 388.343C170.945 406.928 178.075 421.234 193.07 431.845C197.792 435.186 203.038 437.822 208.178 440.527C215.921 444.602 216.901 449.853 210.487 456.522C209.397 457.062 208.632 457.477 207.998 457.329C200.331 455.546 193.482 452.25 186.945 447.687C174.594 439.068 164.73 428.701 159.589 414.306C159.576 414.308 159.564 414.286 159.557 414.19C159.55 414.093 159.471 413.917 159.44 413.574C159.206 412.819 159.002 412.408 158.839 411.71C158.667 410.911 158.452 410.399 158.255 409.553C158.122 408.802 157.972 408.385 157.87 407.643C157.698 406.97 157.477 406.622 157.431 406.117C157.75 405.621 157.679 405.338 157.375 404.732C156.944 404.092 156.531 403.828 156.167 403.127C156.786 396.126 157.356 389.562 158.003 382.605C160.44 377.033 162.801 371.855 165.455 366.509C165.938 365.939 166.127 365.536 166.227 365.135C166.138 365.136 166.199 365.303 166.463 365.196C166.87 364.747 167.014 364.405 167.114 364.064C167.07 364.063 167.099 364.147 167.392 363.996C168.042 363.301 168.398 362.756 168.838 362.189C168.922 362.168 169.003 362.014 169.28 361.918C169.87 361.339 170.182 360.856 170.42 360.33C170.347 360.287 170.398 360.45 170.641 360.392C171.204 360.172 171.402 359.916 171.513 359.524C171.549 359.483 171.658 359.489 171.929 359.352C173.597 357.991 174.993 356.768 176.254 355.276C176.216 355.183 176.313 355.359 176.697 355.468C177.403 355.016 177.822 354.63 178.156 354.26C178.071 354.276 178.243 354.292 178.524 354.266C179.243 353.909 179.682 353.578 180.407 353.217C181.152 352.865 181.609 352.544 182.066 352.223C189.577 349.605 197.158 347.454 206.028 348.883C210.512 350.691 214.223 352.407 217.934 354.123Z" fill="#050509"/>
<path d="M165.161 366.677C162.801 371.855 160.441 377.033 157.671 382.663C156.444 384.008 155.627 384.903 154.507 386.128C152.97 383.632 151.626 381.451 149.556 378.089C148.104 381.147 147.073 383.318 145.548 386.529C138.916 385.811 131.753 385.035 124.418 384.24C124.053 386.126 127.158 390.075 121.661 390.856C120.569 389.134 119.781 387.569 119.163 385.914C119.211 385.554 119.089 385.283 118.69 384.749C118.252 383.197 118.445 381.713 117.861 380.66C116.559 378.315 114.869 376.186 113.338 373.968C113.231 373.535 113.125 373.102 113.176 372.241C113.178 371.566 113.023 371.319 112.868 371.072C112.868 371.072 112.903 370.997 112.943 370.623C112.323 368.505 111.664 366.76 111.004 365.015C110.947 363.314 110.889 361.612 110.883 359.177C110.625 356.628 110.316 354.812 110.305 352.959C110.921 352.514 111.239 352.106 111.556 351.698C111.038 351.467 110.519 351.235 109.997 350.67C109.989 349.892 109.986 349.447 109.982 349.002C111.13 345.304 112.78 343.996 117.351 344.691C123.123 345.569 129.219 344.019 135.171 344.069C145.292 344.152 155.409 344.758 165.531 344.969C172.974 345.124 180.423 345 187.869 345C187.95 345.488 188.032 345.977 188.113 346.466C186.111 348.147 184.108 349.827 182.086 351.865C181.609 352.544 181.152 352.865 180.235 352.949C179.264 353.238 178.753 353.765 178.243 354.292C178.243 354.292 178.071 354.276 177.806 354.214C177.164 354.612 176.787 355.074 176.41 355.535C176.313 355.359 176.216 355.183 175.915 355.101C172.363 354.459 169.015 353.723 165.667 352.986C165.514 353.598 165.362 354.209 165.209 354.821C166.453 355.272 167.872 355.486 168.893 356.239C170.007 357.062 170.752 358.384 171.658 359.489C171.658 359.489 171.549 359.483 171.205 359.45C170.706 359.761 170.552 360.106 170.398 360.45C170.398 360.45 170.347 360.287 170.09 360.327C169.556 360.916 169.279 361.465 169.003 362.014C169.003 362.014 168.922 362.168 168.468 362.232C167.709 362.913 167.404 363.53 167.099 364.147C167.099 364.147 167.07 364.064 166.852 364.177C166.49 364.628 166.344 364.966 166.199 365.303C166.199 365.303 166.138 365.136 165.901 365.271C165.497 365.829 165.329 366.253 165.161 366.677Z" fill="#8A9CF3"/>
<path d="M159.602 414.304C164.731 428.701 174.595 439.068 186.945 447.687C193.483 452.25 200.332 455.546 207.998 457.329C208.633 457.477 209.398 457.062 210.451 456.881C212.624 457.556 214.45 458.259 216.634 459.056C215.802 460.954 214.611 462.756 212.875 465.386C214.36 465.386 216.354 465.176 218.279 465.452C219.822 465.674 221.281 466.485 222.778 467.034C221.488 468.016 220.213 469.827 218.906 469.85C206.613 470.065 194.306 470.212 182.023 469.798C179.164 469.701 176.311 467.524 173.581 466.067C171.01 464.694 168.834 464.077 166.838 467.859C172.343 467.956 175.505 469.826 173.198 475.82C163.591 465.307 153.709 454.969 145.159 443.628C138.904 435.332 134.401 425.715 129.445 416.381C132.243 417.61 134.634 419.298 137.21 420.628C138.928 421.515 140.91 421.891 142.773 422.497C143.339 420.64 143.965 418.799 144.449 416.921C144.753 415.737 144.845 414.498 145.25 411.874C150.377 420.871 150.388 410.924 153.107 411.448C155.68 419.983 155.68 419.983 159.276 420.076C159.385 418.144 159.494 416.224 159.602 414.304ZM198.963 463.166C198.388 463.788 197.813 464.411 197.238 465.034C197.389 465.37 197.54 465.706 197.691 466.042C199.371 465.679 201.05 465.317 202.73 464.955C202.696 464.514 202.662 464.074 202.628 463.633C201.652 463.436 200.676 463.239 198.963 463.166Z" fill="#8EB0F2"/>
<path d="M450.146 386.399C449.427 391.444 448.845 396.066 448.049 400.65C446.824 407.706 440.636 412.1 433.445 411.173C427.09 410.354 421.925 404.373 422.79 397.686C424.666 383.184 426.85 368.714 429.31 354.3C430.492 347.374 437.123 343.176 443.776 344.298C450.716 345.468 455.303 351.64 454.304 358.847C453.048 367.9 451.569 376.922 450.146 386.399Z" fill="#050505"/>
<path d="M159.589 414.307C159.494 416.225 159.385 418.144 159.276 420.076C155.68 419.983 155.68 419.983 153.107 411.448C150.388 410.924 150.376 420.871 145.25 411.875C144.845 414.499 144.753 415.738 144.448 416.921C143.965 418.799 143.339 420.64 142.773 422.497C140.909 421.892 138.928 421.515 137.21 420.628C134.634 419.298 132.243 417.611 129.417 416.029C129.061 415.983 129.01 415.986 129.011 415.573C127.701 412.436 126.388 409.713 125.075 406.99C124.746 406.516 124.416 406.042 124.317 405.045C123.687 400.02 122.826 395.516 121.966 391.013C127.158 390.075 124.054 386.127 124.419 384.241C131.753 385.035 138.916 385.811 145.548 386.53C147.073 383.318 148.104 381.147 149.556 378.09C151.627 381.452 152.97 383.633 154.507 386.128C155.627 384.903 156.444 384.009 157.594 383.057C157.357 389.563 156.787 396.126 156.264 403.466C156.672 404.531 157.032 404.821 157.392 405.11C157.68 405.339 157.751 405.622 157.405 406.434C157.411 407.262 157.616 407.615 157.822 407.969C157.972 408.386 158.123 408.803 158.002 409.7C158.087 410.786 158.443 411.392 158.799 411.998C159.003 412.409 159.206 412.82 159.208 413.653C159.192 414.145 159.378 414.216 159.564 414.287C159.564 414.287 159.576 414.309 159.589 414.307Z" fill="#8BA5F3"/>
<path d="M555.03 304.982C554.694 302.917 554.358 300.852 554.014 298.393C551.778 292.181 549.49 286.385 547.358 280.532C546.69 278.697 546.442 276.71 546.007 274.391C550.607 285.166 555.596 296.201 559.675 307.564C563.027 316.9 565.298 326.624 568.043 336.584C566.951 334.883 565.66 332.852 564.816 330.651C562.17 323.749 559.669 316.791 557.175 309.832C556.797 308.775 556.76 307.596 556.181 306.008C555.6 305.277 555.344 305.09 555.03 304.982Z" fill="#A0A2E2"/>
<path d="M121.662 390.856C122.826 395.516 123.687 400.019 124.306 404.743C120.463 394.885 116.86 384.807 113.298 374.349C114.87 376.186 116.56 378.315 117.861 380.661C118.446 381.713 118.253 383.197 118.698 384.997C118.983 385.508 118.994 386.003 118.994 386.003C119.781 387.569 120.569 389.134 121.662 390.856Z" fill="#A0A2E2"/>
<path d="M268.158 499.665C266.17 493.783 266.609 487.731 268.957 481.399C273.596 482.391 278.204 483.773 282.812 485.154C282.687 485.658 282.563 486.161 282.439 486.665C279.528 486.142 276.612 485.649 273.709 485.089C270.518 484.474 268.636 485.093 268.841 489C269.021 492.441 268.601 495.913 268.158 499.665Z" fill="#B4C3E4"/>
<path d="M109.697 348.723C109.985 349.447 109.989 349.892 109.993 351.002C109.998 352.111 110.002 352.553 110.006 352.996C110.315 354.812 110.625 356.628 110.895 358.852C109.663 354.951 108.091 350.703 107.377 346.315C106.504 340.945 106.35 335.458 105.933 329.163C105.748 326.55 105.514 324.796 105.281 323.042C105.257 322.581 105.233 322.12 105.297 321.323C106.253 325.113 107.339 329.208 107.934 333.373C108.646 338.365 108.938 343.417 109.697 348.723Z" fill="#A0A2E2"/>
<path d="M219.481 359.121C218.947 358.378 218.822 357.664 218.688 356.59C226.264 357.492 233.849 358.754 241.653 360.289C234.545 360.091 227.217 359.62 219.481 359.121Z" fill="#A0A2E2"/>
<path d="M321.516 352.188C321.76 351.44 322.271 350.177 323.08 349.942C329.585 348.058 336.147 346.368 342.887 344.899C336.029 347.503 328.974 349.827 321.516 352.188Z" fill="#A0A2E2"/>
<path d="M264.551 360.664C270.871 359.829 277.624 359.099 284.675 358.65C278.31 359.544 271.647 360.157 264.551 360.664Z" fill="#A0A2E2"/>
<path d="M414.367 267.821C413.394 266.716 412.912 265.206 412.046 263.963C410.002 261.029 410.744 258.114 414.491 256.203C414.771 259.876 414.727 263.707 414.367 267.821Z" fill="#AA94F5"/>
<path d="M254.238 524.272C256.734 523.046 259.45 522.08 262.484 521.044C262.157 522.803 261.513 524.631 260.738 526.831C258.379 525.967 256.419 525.249 254.238 524.272Z" fill="#B4C3E4"/>
<path d="M295.386 357.778C299.372 356.798 303.769 355.902 308.624 355.029C304.654 355.989 300.225 356.926 295.386 357.778Z" fill="#A0A2E2"/>
<path d="M266.154 510.705C266.246 508.03 266.621 505.113 267.323 502.077C267.246 504.793 266.842 507.628 266.154 510.705Z" fill="#B4C3E4"/>
<path d="M125.062 407.36C126.388 409.713 127.701 412.436 129.019 415.549C127.699 413.202 126.374 410.467 125.062 407.36Z" fill="#A0A2E2"/>
<path d="M352.8 341.111C351.378 342.095 349.547 343.024 347.355 344.006C346.505 344.297 346.014 344.535 345.248 344.791C346.155 341.006 349.456 341.392 352.8 341.111Z" fill="#A0A2E2"/>
<path d="M312.355 354.731C314.137 353.904 316.291 353.138 318.689 352.618C316.864 353.507 314.796 354.15 312.355 354.731Z" fill="#A0A2E2"/>
<path d="M403.47 300.135C402.53 299.264 401.854 298.186 401.005 296.833C402.607 296.528 403.98 296.266 405.685 296.003C405.255 297.31 404.494 298.619 403.47 300.135Z" fill="#9E96F5"/>
<path d="M242.334 520.246C244.708 520.704 247.288 521.434 249.951 522.51C247.536 522.076 245.038 521.297 242.334 520.246Z" fill="#B4C3E4"/>
<path d="M534.18 250.515C533.21 249.108 532.272 247.347 531.564 245.341C532.601 246.785 533.407 248.473 534.18 250.515Z" fill="#9D96F4"/>
<path d="M575.223 470.71C575.076 469.032 575.2 467.086 575.694 465.083C575.874 466.831 575.684 468.637 575.223 470.71Z" fill="#92BEF4"/>
<path d="M171.683 153.105C172.573 155.687 172.271 156.051 168.3 156.95C169.087 155.697 170.238 154.465 171.683 153.105Z" fill="#B591F4"/>
<path d="M450.231 258.247C451.861 257.828 453.601 257.685 456.089 257.48C454.803 258.641 453.976 259.387 453.091 260.441C452.135 260.007 451.238 259.265 450.231 258.247Z" fill="#AA94F5"/>
<path d="M452.917 149.627C451.603 149.036 450.161 148.15 448.947 147.069C450.38 147.694 451.585 148.513 452.917 149.627Z" fill="#B591F4"/>
<path d="M110.972 365.384C111.663 366.76 112.323 368.505 112.948 370.664C112.255 369.304 111.597 367.528 110.972 365.384Z" fill="#A0A2E2"/>
<path d="M289.338 358.663C290.173 358.194 291.358 357.808 292.759 357.666C291.879 358.188 290.784 358.467 289.338 358.663Z" fill="#A0A2E2"/>
<path d="M105.2 323.433C105.515 324.797 105.749 326.551 105.941 328.711C105.639 327.352 105.379 325.587 105.2 323.433Z" fill="#B4C3E4"/>
<path d="M135.686 197.177C135.791 197.888 135.639 198.807 135.19 199.821C135.072 199.073 135.25 198.229 135.686 197.177Z" fill="#AA94F5"/>
<path d="M105.682 295.185C105.853 296.071 105.806 297.24 105.558 298.684C105.394 297.795 105.429 296.631 105.682 295.185Z" fill="#B4C3E4"/>
<path d="M574.298 474.844C574.107 474.381 574.142 473.735 574.442 473.04C574.647 473.548 574.585 474.104 574.298 474.844Z" fill="#92BEF4"/>
<path d="M413.322 246.552C413.068 246.086 412.755 245.259 412.689 244.231C413.046 244.751 413.155 245.471 413.322 246.552Z" fill="#9E96F5"/>
<path d="M167.652 157.079C167.766 157.509 167.599 158.08 167.157 158.791C167.045 158.361 167.209 157.791 167.652 157.079Z" fill="#B591F4"/>
<path d="M500.121 197.682C499.958 197.68 499.798 197.445 499.798 197.114C499.957 197.018 500.125 197.45 500.121 197.682Z" fill="#AA94F5"/>
<path d="M134.667 199.975C134.866 200.28 134.688 200.553 134.166 200.844C134.09 200.629 134.246 200.322 134.667 199.975Z" fill="#AA94F5"/>
<path d="M536.603 253.723C536.409 253.796 536.248 253.636 536.057 253.275C536.26 253.149 536.463 253.288 536.603 253.723Z" fill="#AA94F5"/>
<path d="M264.406 515.116C264.316 514.95 264.425 514.62 264.764 514.153C264.865 514.329 264.735 514.641 264.406 515.116Z" fill="#B4C3E4"/>
<path d="M112.86 371.31C113.023 371.32 113.178 371.566 113.163 371.906C112.993 371.999 112.852 371.546 112.86 371.31Z" fill="#A0A2E2"/>
<path d="M217.951 353.736C214.224 352.407 210.513 350.691 206.439 348.833C212.863 347.082 216.213 348.395 217.951 353.736Z" fill="#A0A2E2"/>
<path d="M360.735 337.043C358.712 338.396 356.276 339.729 353.498 341.147C353.674 336.643 357.215 337.204 360.735 337.043Z" fill="#A0A2E2"/>
<path d="M377.449 324.533C377.482 324.589 377.416 324.477 377.449 324.533Z" fill="#9798F4"/>
<path d="M218.782 356.039C218.566 356.035 218.364 355.794 218.207 355.305C218.549 355.221 218.731 355.469 218.782 356.039Z" fill="#A0A2E2"/>
<path d="M554.804 305.137C555.344 305.09 555.6 305.277 555.908 305.757C555.531 306.149 555.043 306.328 554.555 306.506C554.562 306.102 554.57 305.697 554.804 305.137Z" fill="#9D96F4"/>
<path d="M171.929 359.352C170.752 358.384 170.007 357.062 168.892 356.239C167.872 355.486 166.453 355.272 165.209 354.82C165.361 354.209 165.514 353.598 165.666 352.986C169.014 353.723 172.362 354.459 176.05 355.37C174.993 356.768 173.597 357.992 171.929 359.352Z" fill="#9099F3"/>
<path d="M178.524 354.267C178.754 353.766 179.264 353.239 179.947 352.979C179.682 353.578 179.244 353.909 178.524 354.267Z" fill="#9099F3"/>
<path d="M158.84 411.711C158.442 411.392 158.086 410.785 157.984 410.033C158.453 410.399 158.667 410.912 158.84 411.711Z" fill="#8EB0F2"/>
<path d="M176.697 355.468C176.787 355.074 177.163 354.612 177.89 354.197C177.822 354.63 177.403 355.016 176.697 355.468Z" fill="#9099F3"/>
<path d="M167.393 363.997C167.404 363.531 167.709 362.914 168.384 362.254C168.398 362.756 168.042 363.301 167.393 363.997Z" fill="#9099F3"/>
<path d="M169.28 361.919C169.279 361.466 169.556 360.917 170.163 360.371C170.182 360.857 169.87 361.34 169.28 361.919Z" fill="#9099F3"/>
<path d="M157.87 407.644C157.616 407.616 157.41 407.262 157.23 406.592C157.477 406.623 157.698 406.97 157.87 407.644Z" fill="#8EB0F2"/>
<path d="M170.641 360.392C170.552 360.106 170.706 359.761 171.169 359.491C171.402 359.916 171.205 360.172 170.641 360.392Z" fill="#9099F3"/>
<path d="M166.463 365.197C166.344 364.966 166.49 364.629 166.897 364.178C167.014 364.406 166.87 364.748 166.463 365.197Z" fill="#9099F3"/>
<path d="M165.455 366.509C165.329 366.253 165.497 365.829 165.991 365.27C166.127 365.537 165.938 365.939 165.455 366.509Z" fill="#9099F3"/>
<path d="M159.558 414.191C159.378 414.216 159.192 414.145 159.239 413.996C159.472 413.918 159.551 414.094 159.558 414.191Z" fill="#8EB0F2"/>
<path d="M157.375 404.732C157.032 404.82 156.672 404.531 156.215 403.903C156.532 403.828 156.945 404.092 157.375 404.732Z" fill="#8EB0F2"/>
<path d="M110.306 352.959C110.003 352.553 109.999 352.111 109.998 351.336C110.52 351.235 111.038 351.467 111.557 351.698C111.239 352.106 110.922 352.514 110.306 352.959Z" fill="#9099F3"/>
<path d="M119.162 385.914C118.993 386.004 118.982 385.508 118.975 385.261C119.089 385.284 119.21 385.554 119.162 385.914Z" fill="#8BA5F3"/>
<path d="M199.331 463.104C200.675 463.24 201.651 463.437 202.627 463.633C202.661 464.074 202.695 464.514 202.729 464.955C201.049 465.317 199.37 465.68 197.69 466.042C197.539 465.706 197.388 465.37 197.237 465.034C197.812 464.411 198.387 463.789 199.331 463.104Z" fill="#93BCF5"/>
<rect x="309" y="325" width="145" height="97" fill="white"/>
<rect x="362.845" y="334" width="26.4142" height="62.6394" rx="13.2071" transform="rotate(8.11703 362.845 334)" fill="#050505"/>
<rect x="444.352" y="337.745" width="25.4681" height="60.3957" rx="12.734" transform="rotate(8.11703 444.352 337.745)" fill="#050505"/>
<path d="M106.099 291.38C108.198 289.067 110.222 287.14 112.98 284.515C113.286 286.023 113.951 287.793 113.935 289.558C113.907 292.737 115.144 294.249 118.374 294.006C119.202 293.944 120.039 293.999 120.871 293.999C211.277 294 301.683 294 392.089 293.999C397.651 293.999 402.24 290.618 403.742 285.263C408.165 285.139 406.462 289.345 407.961 291.617C407.461 293.154 406.914 294.309 405.861 295.734C403.981 296.265 402.607 296.527 401.005 296.832C401.854 298.186 402.53 299.264 403.206 300.342C397.005 307.469 390.803 314.597 384.141 321.508C380.747 317.703 376.478 317.042 373.327 319.123C370.398 321.056 367.117 322.478 363.922 323.978C361.842 324.955 359.637 325.666 357.49 326.502C356.065 327.056 354.643 327.621 353.219 328.181C353.628 326.713 354.22 325.266 354.386 323.771C354.513 322.636 354.1 321.441 353.927 320.272C352.999 320.676 351.275 321.059 351.264 321.487C351.141 326.231 347.657 324.967 345.105 324.969C271.821 325.007 198.537 325 125.253 325C110.546 325 110.454 325.002 110.065 310.603C109.972 307.135 108.741 305.644 105.319 306.006C105.294 303.949 105.269 301.892 105.502 299.122C105.807 297.24 105.853 296.071 105.9 294.902C105.941 293.857 105.983 292.811 106.099 291.38Z" fill="#9798F4"/>
<path d="M105.233 306.466C108.741 305.645 109.971 307.135 110.065 310.604C110.454 325.002 110.545 325 125.253 325C198.537 325 271.82 325.007 345.104 324.969C347.657 324.968 351.141 326.231 351.264 321.487C351.275 321.059 352.999 320.676 353.927 320.272C354.1 321.441 354.513 322.636 354.386 323.772C354.219 325.266 353.628 326.714 353.219 328.181C354.642 327.621 356.064 327.057 357.49 326.502C359.637 325.666 361.841 324.955 363.922 323.978C367.117 322.478 370.398 321.056 373.327 319.123C376.478 317.043 380.746 317.704 383.825 321.615C377.18 326.41 370.39 330.883 363.106 335.727C362.125 336.421 361.637 336.742 360.735 337.043C357.215 337.203 353.674 336.642 353.124 341.177C353.091 341.125 353.209 341.165 352.801 341.112C349.456 341.392 346.155 341.006 344.973 344.81C344.554 344.896 344.135 344.982 343.204 344.844C336.147 346.369 329.586 348.059 323.08 349.943C322.272 350.177 321.761 351.44 321.112 352.227C320.584 352.453 320.057 352.68 318.988 352.64C316.292 353.139 314.137 353.905 311.983 354.67C311.261 354.798 310.539 354.926 308.992 355.03C303.769 355.902 299.372 356.798 294.976 357.693C294.534 357.774 294.092 357.854 293.097 357.678C291.359 357.808 290.173 358.194 288.988 358.579C287.92 358.711 286.852 358.843 285.081 358.673C277.625 359.099 270.871 359.828 264.118 360.558C257.014 360.622 249.91 360.686 242.121 360.383C233.85 358.753 226.265 357.491 218.726 356.194C218.773 356.16 218.768 356.276 218.782 356.039C218.73 355.469 218.549 355.221 218.115 354.844C217.963 354.461 217.949 354.293 217.951 353.737C216.213 348.395 212.863 347.082 205.666 348.742C197.158 347.455 189.578 349.605 182.086 351.865C184.108 349.827 186.111 348.147 188.113 346.466C188.032 345.978 187.95 345.489 187.869 345C180.423 345 172.974 345.125 165.531 344.969C155.409 344.758 145.293 344.152 135.171 344.069C129.219 344.02 123.123 345.569 117.352 344.691C112.78 343.996 111.13 345.304 109.698 348.723C108.939 343.417 108.646 338.365 107.934 333.374C107.34 329.208 106.253 325.113 105.385 320.987C105.306 316.3 105.226 311.612 105.233 306.466Z" fill="#9099F3"/>
</g>
<defs>
<clipPath id="clip0_1399_328">
<rect width="735" height="726" fill="white"/>
</clipPath>
</defs>
</svg>
